<svg width="212" height="31" viewBox="0 0 212 31" fill="none" xmlns="http://www.w3.org/2000/svg">
<path d="M211.724 8.18182L204.097 30H197.278L189.651 8.18182H196.043L200.574 23.7926H200.801L205.318 8.18182H211.724Z" fill="black"/>
<path d="M178.006 30.4261C175.762 30.4261 173.83 29.9716 172.211 29.0625C170.601 28.1439 169.361 26.8466 168.489 25.1705C167.618 23.4849 167.182 21.4915 167.182 19.1903C167.182 16.946 167.618 14.9763 168.489 13.2813C169.361 11.5862 170.587 10.2652 172.168 9.31819C173.759 8.37122 175.625 7.89774 177.765 7.89774C179.204 7.89774 180.544 8.12974 181.785 8.59376C183.035 9.0483 184.124 9.73485 185.052 10.6534C185.989 11.572 186.718 12.7273 187.239 14.1193C187.76 15.5019 188.021 17.1212 188.021 18.9773V20.6392H169.597V16.8892H182.325C182.325 16.018 182.135 15.2462 181.756 14.5739C181.378 13.9015 180.852 13.376 180.18 12.9972C179.517 12.6089 178.745 12.4148 177.864 12.4148C176.946 12.4148 176.131 12.6278 175.421 13.054C174.72 13.4707 174.171 14.0341 173.773 14.7443C173.376 15.4451 173.172 16.2263 173.163 17.0881V20.6534C173.163 21.733 173.361 22.6657 173.759 23.4517C174.166 24.2377 174.739 24.8438 175.478 25.2699C176.217 25.696 177.093 25.9091 178.106 25.9091C178.778 25.9091 179.394 25.8144 179.952 25.625C180.511 25.4356 180.989 25.1515 181.387 24.7727C181.785 24.3939 182.088 23.9299 182.296 23.3807L187.893 23.75C187.609 25.0947 187.026 26.2689 186.146 27.2727C185.274 28.2671 184.147 29.0436 182.765 29.6023C181.392 30.1515 179.806 30.4261 178.006 30.4261Z" fill="black"/>
<path d="M149.388 30H139.075V0.909088H149.473C152.399 0.909088 154.918 1.49148 157.03 2.65625C159.142 3.81155 160.766 5.47348 161.902 7.64204C163.048 9.8106 163.621 12.4053 163.621 15.4261C163.621 18.4564 163.048 21.0606 161.902 23.2386C160.766 25.4167 159.132 27.0881 157.001 28.2528C154.88 29.4176 152.342 30 149.388 30ZM145.226 24.7301H149.132C150.95 24.7301 152.48 24.4081 153.72 23.7642C154.97 23.1108 155.908 22.1023 156.533 20.7386C157.167 19.3655 157.484 17.5947 157.484 15.4261C157.484 13.2765 157.167 11.5199 156.533 10.1562C155.908 8.79261 154.975 7.78883 153.734 7.14489C152.494 6.50095 150.965 6.17898 149.146 6.17898H145.226V24.7301Z" fill="black"/>
<path d="M122.594 30V8.18182H128.461V11.9886H128.688C129.086 10.6345 129.754 9.61175 130.691 8.92046C131.629 8.21971 132.708 7.86932 133.93 7.86932C134.233 7.86932 134.559 7.88827 134.91 7.92614C135.26 7.96402 135.568 8.01611 135.833 8.08239V13.4517C135.549 13.3665 135.156 13.2907 134.654 13.2244C134.152 13.1582 133.693 13.125 133.276 13.125C132.386 13.125 131.591 13.3191 130.89 13.7074C130.199 14.0862 129.649 14.6165 129.242 15.2983C128.844 15.9801 128.646 16.7661 128.646 17.6563V30H122.594Z" fill="black"/>
<path d="M108.631 30.4261C106.387 30.4261 104.455 29.9716 102.836 29.0625C101.226 28.1439 99.9855 26.8466 99.1143 25.1705C98.2431 23.4849 97.8075 21.4915 97.8075 19.1903C97.8075 16.946 98.2431 14.9763 99.1143 13.2813C99.9855 11.5862 101.212 10.2652 102.793 9.31819C104.384 8.37122 106.25 7.89774 108.39 7.89774C109.829 7.89774 111.169 8.12974 112.41 8.59376C113.66 9.0483 114.749 9.73485 115.677 10.6534C116.614 11.572 117.343 12.7273 117.864 14.1193C118.385 15.5019 118.646 17.1212 118.646 18.9773V20.6392H100.222V16.8892H112.95C112.95 16.018 112.76 15.2462 112.381 14.5739C112.003 13.9015 111.477 13.376 110.805 12.9972C110.142 12.6089 109.37 12.4148 108.489 12.4148C107.571 12.4148 106.756 12.6278 106.046 13.054C105.345 13.4707 104.796 14.0341 104.398 14.7443C104.001 15.4451 103.797 16.2263 103.788 17.0881V20.6534C103.788 21.733 103.986 22.6657 104.384 23.4517C104.791 24.2377 105.364 24.8438 106.103 25.2699C106.842 25.696 107.718 25.9091 108.731 25.9091C109.403 25.9091 110.019 25.8144 110.577 25.625C111.136 25.4356 111.614 25.1515 112.012 24.7727C112.41 24.3939 112.713 23.9299 112.921 23.3807L118.518 23.75C118.234 25.0947 117.651 26.2689 116.771 27.2727C115.899 28.2671 114.772 29.0436 113.39 29.6023C112.017 30.1515 110.431 30.4261 108.631 30.4261Z" fill="black"/>
<path d="M94.9808 8.1818V12.7273H81.8416V8.1818H94.9808ZM84.8246 2.95453H90.8757V23.2954C90.8757 23.8542 90.9609 24.2898 91.1314 24.6023C91.3018 24.9053 91.5386 25.1184 91.8416 25.2415C92.1541 25.3646 92.514 25.4261 92.9212 25.4261C93.2052 25.4261 93.4893 25.4024 93.7734 25.3551C94.0575 25.2983 94.2753 25.2557 94.4268 25.2273L95.3785 29.7301C95.0755 29.8248 94.6494 29.9337 94.1001 30.0568C93.5509 30.1894 92.8833 30.2699 92.0973 30.2983C90.639 30.3551 89.3606 30.161 88.2621 29.7159C87.1731 29.2708 86.3255 28.5795 85.7195 27.642C85.1134 26.7045 84.8151 25.5208 84.8246 24.0909V2.95453Z" fill="black"/>
<path d="M79.4339 8.1818V12.7273H66.2947V8.1818H79.4339ZM69.2777 2.95453H75.3288V23.2954C75.3288 23.8542 75.4141 24.2898 75.5845 24.6023C75.755 24.9053 75.9917 25.1184 76.2947 25.2415C76.6072 25.3646 76.9671 25.4261 77.3743 25.4261C77.6584 25.4261 77.9425 25.4024 78.2266 25.3551C78.5106 25.2983 78.7285 25.2557 78.88 25.2273L79.8317 29.7301C79.5286 29.8248 79.1025 29.9337 78.5533 30.0568C78.004 30.1894 77.3364 30.2699 76.5504 30.2983C75.0921 30.3551 73.8137 30.161 72.7152 29.7159C71.6262 29.2708 70.7786 28.5795 70.1726 27.642C69.5665 26.7045 69.2682 25.5208 69.2777 24.0909V2.95453Z" fill="black"/>
<path d="M53.8657 30.4261C51.6214 30.4261 49.6896 29.9716 48.0703 29.0625C46.4604 28.1439 45.2199 26.8466 44.3487 25.1705C43.4775 23.4849 43.0419 21.4915 43.0419 19.1903C43.0419 16.946 43.4775 14.9763 44.3487 13.2813C45.2199 11.5862 46.4462 10.2652 48.0277 9.31819C49.6186 8.37122 51.4841 7.89774 53.6243 7.89774C55.0637 7.89774 56.4036 8.12974 57.6441 8.59376C58.8941 9.0483 59.9832 9.73485 60.9112 10.6534C61.8487 11.572 62.5779 12.7273 63.0987 14.1193C63.6195 15.5019 63.8799 17.1212 63.8799 18.9773V20.6392H45.4566V16.8892H58.1839C58.1839 16.018 57.9945 15.2462 57.6157 14.5739C57.2369 13.9015 56.7114 13.376 56.039 12.9972C55.3761 12.6089 54.6044 12.4148 53.7237 12.4148C52.8051 12.4148 51.9907 12.6278 51.2805 13.054C50.5797 13.4707 50.0305 14.0341 49.6328 14.7443C49.2351 15.4451 49.0315 16.2263 49.022 17.0881V20.6534C49.022 21.733 49.2208 22.6657 49.6186 23.4517C50.0258 24.2377 50.5987 24.8438 51.3373 25.2699C52.076 25.696 52.9519 25.9091 53.9652 25.9091C54.6375 25.9091 55.253 25.8144 55.8118 25.625C56.3705 25.4356 56.8487 25.1515 57.2464 24.7727C57.6441 24.3939 57.9472 23.9299 58.1555 23.3807L63.7521 23.75C63.468 25.0947 62.8856 26.2689 62.0049 27.2727C61.1337 28.2671 60.0068 29.0436 58.6243 29.6023C57.2512 30.1515 55.665 30.4261 53.8657 30.4261Z" fill="black"/>
<path d="M17.5909 30V0.909088H29.2387C31.3788 0.909088 33.1639 1.22632 34.5938 1.86079C36.0237 2.49526 37.0985 3.37594 37.8182 4.50284C38.5379 5.62026 38.8978 6.90814 38.8978 8.36648C38.8978 9.50284 38.6705 10.5019 38.2159 11.3636C37.7614 12.2159 37.1364 12.9167 36.3409 13.4659C35.555 14.0057 34.6553 14.3892 33.6421 14.6165V14.9006C34.75 14.9479 35.787 15.2604 36.7529 15.8381C37.7283 16.4157 38.519 17.2254 39.125 18.267C39.7311 19.2992 40.0341 20.5303 40.0341 21.9602C40.0341 23.5038 39.6506 24.8816 38.8836 26.0938C38.126 27.2964 37.0038 28.2481 35.5171 28.9489C34.0303 29.6496 32.1979 30 30.0199 30H17.5909ZM23.7415 24.9716H28.7557C30.4697 24.9716 31.7197 24.6449 32.5057 23.9915C33.2917 23.3286 33.6847 22.4479 33.6847 21.3494C33.6847 20.5445 33.4906 19.8343 33.1023 19.2188C32.714 18.6032 32.1601 18.1203 31.4404 17.7699C30.7301 17.4195 29.8826 17.2443 28.8978 17.2443H23.7415V24.9716ZM23.7415 13.0824H28.3012C29.144 13.0824 29.8921 12.9356 30.5455 12.642C31.2084 12.339 31.7292 11.9129 32.108 11.3636C32.4962 10.8144 32.6904 10.1563 32.6904 9.38921C32.6904 8.33807 32.3163 7.49053 31.5682 6.84659C30.8296 6.20265 29.7784 5.88068 28.4148 5.88068H23.7415V13.0824Z" fill="black"/>
<path d="M5.52272 30.5909C4.02272 30.5909 2.73484 30.0606 1.65909 29C0.598479 27.9242 0.0681763 26.6364 0.0681763 25.1364C0.0681763 23.6515 0.598479 22.3788 1.65909 21.3182C2.73484 20.2576 4.02272 19.7273 5.52272 19.7273C6.97727 19.7273 8.24999 20.2576 9.3409 21.3182C10.4318 22.3788 10.9773 23.6515 10.9773 25.1364C10.9773 26.1364 10.7197 27.053 10.2045 27.8864C9.70454 28.7045 9.04545 29.3636 8.22727 29.8636C7.40909 30.3485 6.50757 30.5909 5.52272 30.5909Z" fill="#2562FF"/>
</svg>
